<svg xmlns="http://www.w3.org/2000/svg" viewBox="0 0 200 240" fill="none">
  <defs>
    <clipPath id="pin-clip">
      <path d="M100 4 C55 4 18 41 18 86 C18 115 32 138 52 158 L100 212 L148 158 C168 138 182 115 182 86 C182 41 145 4 100 4 Z"/>
    </clipPath>
  </defs>

  <!-- Full pin in blue -->
  <path d="M100 4 C55 4 18 41 18 86 C18 115 32 138 52 158 L100 212 L148 158 C168 138 182 115 182 86 C182 41 145 4 100 4 Z" fill="#29ABE2"/>

  <!-- Pink chevron/checkmark — clipped to pin shape -->
  <g clip-path="url(#pin-clip)">
    <!-- Two thick angled bars forming a right-opening V / checkmark -->
    <path d="M38 108 L72 148 L100 120 L128 148 L162 108 L128 72 L100 100 L72 72 Z" fill="#C5006A"/>
    <!-- Clean V shape -->
    <path d="M44 96 L100 158 L156 96 L140 80 L100 126 L60 80 Z" fill="#C5006A"/>
  </g>

  <!-- White person head circle -->
  <circle cx="100" cy="68" r="24" fill="white"/>
</svg>
